<mxfile host="Electron" modified="2024-05-20T13:03:11.883Z" agent="Mozilla/5.0 (X11; Linux x86_64) AppleWebKit/537.36 (KHTML, like Gecko) draw.io/24.4.0 Chrome/120.0.6099.109 Electron/28.1.0 Safari/537.36" etag="wQWPRqg66PiX1H6e5XMw" version="24.4.0" type="device">
  <diagram name="Page-1" id="vSEMINzd47B22NyJE1k9">
    <mxGraphModel dx="941" dy="581" grid="1" gridSize="10" guides="1" tooltips="1" connect="1" arrows="1" fold="1" page="1" pageScale="1" pageWidth="827" pageHeight="583" background="none" math="0" shadow="0">
      <root>
        <mxCell id="0" />
        <mxCell id="1" parent="0" />
        <mxCell id="6QlvXmKTNDScI4H9ffr--18" value="read data" style="edgeStyle=orthogonalEdgeStyle;rounded=0;orthogonalLoop=1;jettySize=auto;html=1;exitX=0.855;exitY=0;exitDx=0;exitDy=4.35;exitPerimeter=0;entryX=0;entryY=1;entryDx=0;entryDy=0;" edge="1" parent="1" source="6QlvXmKTNDScI4H9ffr--1" target="6QlvXmKTNDScI4H9ffr--8">
          <mxGeometry relative="1" as="geometry">
            <Array as="points">
              <mxPoint x="171" y="230" />
              <mxPoint x="390" y="230" />
            </Array>
          </mxGeometry>
        </mxCell>
        <mxCell id="6QlvXmKTNDScI4H9ffr--1" value="Postgres&lt;div&gt;&lt;br&gt;&lt;/div&gt;" style="shape=cylinder3;whiteSpace=wrap;html=1;boundedLbl=1;backgroundOutline=1;size=15;fillColor=none;" vertex="1" parent="1">
          <mxGeometry x="120" y="280" width="60" height="80" as="geometry" />
        </mxCell>
        <mxCell id="6QlvXmKTNDScI4H9ffr--4" value="" style="rounded=1;whiteSpace=wrap;html=1;fillColor=none;dashed=1;" vertex="1" parent="1">
          <mxGeometry x="200" y="100" width="310" height="150" as="geometry" />
        </mxCell>
        <mxCell id="6QlvXmKTNDScI4H9ffr--5" value="&lt;font style=&quot;font-size: 16px;&quot;&gt;Prefect&lt;/font&gt;" style="text;html=1;align=center;verticalAlign=middle;whiteSpace=wrap;rounded=0;" vertex="1" parent="1">
          <mxGeometry x="200" y="70" width="80" height="30" as="geometry" />
        </mxCell>
        <mxCell id="6QlvXmKTNDScI4H9ffr--16" value="fetch rss" style="edgeStyle=orthogonalEdgeStyle;rounded=0;orthogonalLoop=1;jettySize=auto;html=1;exitX=0.88;exitY=0.25;exitDx=0;exitDy=0;exitPerimeter=0;entryX=0;entryY=0.25;entryDx=0;entryDy=0;" edge="1" parent="1" source="6QlvXmKTNDScI4H9ffr--6" target="6QlvXmKTNDScI4H9ffr--7">
          <mxGeometry relative="1" as="geometry" />
        </mxCell>
        <mxCell id="6QlvXmKTNDScI4H9ffr--6" value="News&lt;div&gt;websites&lt;/div&gt;" style="ellipse;shape=cloud;whiteSpace=wrap;html=1;fillColor=none;" vertex="1" parent="1">
          <mxGeometry x="10" y="135" width="120" height="80" as="geometry" />
        </mxCell>
        <mxCell id="6QlvXmKTNDScI4H9ffr--17" value="write" style="edgeStyle=orthogonalEdgeStyle;rounded=0;orthogonalLoop=1;jettySize=auto;html=1;exitX=0;exitY=1;exitDx=0;exitDy=0;" edge="1" parent="1" source="6QlvXmKTNDScI4H9ffr--7" target="6QlvXmKTNDScI4H9ffr--1">
          <mxGeometry relative="1" as="geometry">
            <Array as="points">
              <mxPoint x="230" y="210" />
              <mxPoint x="150" y="210" />
            </Array>
          </mxGeometry>
        </mxCell>
        <mxCell id="6QlvXmKTNDScI4H9ffr--7" value="update rss data" style="whiteSpace=wrap;html=1;aspect=fixed;fillColor=none;" vertex="1" parent="1">
          <mxGeometry x="230" y="135" width="80" height="80" as="geometry" />
        </mxCell>
        <mxCell id="6QlvXmKTNDScI4H9ffr--20" value="write model" style="edgeStyle=orthogonalEdgeStyle;rounded=0;orthogonalLoop=1;jettySize=auto;html=1;exitX=0.25;exitY=1;exitDx=0;exitDy=0;entryX=1;entryY=0;entryDx=0;entryDy=0;" edge="1" parent="1" source="6QlvXmKTNDScI4H9ffr--8" target="6QlvXmKTNDScI4H9ffr--11">
          <mxGeometry relative="1" as="geometry">
            <Array as="points">
              <mxPoint x="410" y="260" />
              <mxPoint x="310" y="260" />
            </Array>
          </mxGeometry>
        </mxCell>
        <mxCell id="6QlvXmKTNDScI4H9ffr--8" value="train model" style="whiteSpace=wrap;html=1;aspect=fixed;fillColor=none;" vertex="1" parent="1">
          <mxGeometry x="390" y="135" width="80" height="80" as="geometry" />
        </mxCell>
        <mxCell id="6QlvXmKTNDScI4H9ffr--9" value="Rss worker" style="text;html=1;align=center;verticalAlign=middle;whiteSpace=wrap;rounded=0;" vertex="1" parent="1">
          <mxGeometry x="220" y="110" width="80" height="30" as="geometry" />
        </mxCell>
        <mxCell id="6QlvXmKTNDScI4H9ffr--10" value="ML worker" style="text;html=1;align=center;verticalAlign=middle;whiteSpace=wrap;rounded=0;" vertex="1" parent="1">
          <mxGeometry x="385" y="110" width="80" height="30" as="geometry" />
        </mxCell>
        <mxCell id="6QlvXmKTNDScI4H9ffr--11" value="experiment&lt;div&gt;tracking&lt;/div&gt;" style="whiteSpace=wrap;html=1;aspect=fixed;fillColor=none;" vertex="1" parent="1">
          <mxGeometry x="230" y="280" width="80" height="80" as="geometry" />
        </mxCell>
        <mxCell id="6QlvXmKTNDScI4H9ffr--12" value="Mlflow track" style="text;html=1;align=center;verticalAlign=middle;whiteSpace=wrap;rounded=0;" vertex="1" parent="1">
          <mxGeometry x="220" y="255" width="80" height="30" as="geometry" />
        </mxCell>
        <mxCell id="6QlvXmKTNDScI4H9ffr--13" value="serve latest model" style="whiteSpace=wrap;html=1;aspect=fixed;fillColor=none;" vertex="1" parent="1">
          <mxGeometry x="390" y="280" width="80" height="80" as="geometry" />
        </mxCell>
        <mxCell id="6QlvXmKTNDScI4H9ffr--14" value="Mlflow serve" style="text;html=1;align=center;verticalAlign=middle;whiteSpace=wrap;rounded=0;" vertex="1" parent="1">
          <mxGeometry x="385" y="255" width="80" height="30" as="geometry" />
        </mxCell>
        <mxCell id="6QlvXmKTNDScI4H9ffr--22" value="model" style="edgeStyle=orthogonalEdgeStyle;rounded=0;orthogonalLoop=1;jettySize=auto;html=1;exitX=1;exitY=0.25;exitDx=0;exitDy=0;entryX=-0.045;entryY=0.253;entryDx=0;entryDy=0;entryPerimeter=0;" edge="1" parent="1" source="6QlvXmKTNDScI4H9ffr--11" target="6QlvXmKTNDScI4H9ffr--13">
          <mxGeometry relative="1" as="geometry" />
        </mxCell>
      </root>
    </mxGraphModel>
  </diagram>
</mxfile>
